# xmcd CD database file
#
# Track frame offsets:
#	150
#	23928
#	47127
#	66806
#	86129
#	112887
#	147180
#	170173
#	196931
#	221613
#	235589
#	250100
#
# Disc length: 3579 seconds
#
# Revision: 1
# Processed by: cddbd v1.4PL0 Copyright (c) Steve Scherf et al.
# Submitted via: CDex 1.50Beta7
#
DISCID=a60df90c
DTITLE=Bostjan Leben - Saute Surmadi
DYEAR=2002
DGENRE=Jazz
TTITLE0=Red
TTITLE1=Libra
TTITLE2=Yin and Yang
TTITLE3=Seven
TTITLE4=S.S.S.
TTITLE5=Nomad
TTITLE6=Lifetime
TTITLE7=Anoushka
TTITLE8=History
TTITLE9=B and B
TTITLE10=Secrets
TTITLE11=Passion
EXTD=YEAR: 2002
EXTT0=
EXTT1=
EXTT2=
EXTT3=
EXTT4=
EXTT5=
EXTT6=
EXTT7=
EXTT8=
EXTT9=
EXTT10=
EXTT11=
PLAYORDER=
